<svg width="28" height="32" viewBox="0 0 28 32" fill="none" xmlns="http://www.w3.org/2000/svg">
<path d="M14 16.028C12.075 16.028 10.4271 15.2752 9.05625 13.7697C7.68542 12.2642 7 10.4544 7 8.34029C7 6.22617 7.68542 4.41636 9.05625 2.91085C10.4271 1.40534 12.075 0.652588 14 0.652588C15.925 0.652588 17.5729 1.40534 18.9438 2.91085C20.3146 4.41636 21 6.22617 21 8.34029C21 10.4544 20.3146 12.2642 18.9438 13.7697C17.5729 15.2752 15.925 16.028 14 16.028ZM0 31.4034V26.022C0 24.9329 0.2555 23.9316 0.7665 23.018C1.27633 22.1058 1.95417 21.4094 2.8 20.9289C4.60833 19.9359 6.44583 19.1908 8.3125 18.6937C10.1792 18.1979 12.075 17.9499 14 17.9499C15.925 17.9499 17.8208 18.1979 19.6875 18.6937C21.5542 19.1908 23.3917 19.9359 25.2 20.9289C26.0458 21.4094 26.7237 22.1058 27.2335 23.018C27.7445 23.9316 28 24.9329 28 26.022V31.4034H0Z" fill="black"/>
</svg>
