<svg width="36" height="34" viewBox="0 0 36 34" fill="none" xmlns="http://www.w3.org/2000/svg">
<path d="M32.0917 6.77166L26.3758 5.47332L23.3833 0.438324L18 2.74999L12.6167 0.438324L9.62417 5.47332L3.90834 6.75582L4.44667 12.5825L0.583336 17L4.44667 21.4017L3.90834 27.2442L9.62417 28.5425L12.6167 33.5775L18 31.25L23.3833 33.5617L26.3758 28.5267L32.0917 27.2283L31.5533 21.4017L35.4167 17L31.5533 12.5983L32.0917 6.77166ZM28.6875 24.7583L24.3492 25.74L22.085 29.5558L18 27.7983L13.915 29.5558L11.6508 25.74L7.3125 24.7583L7.72417 20.325L4.795 17L7.72417 13.6433L7.3125 9.24166L11.6508 8.27582L13.915 4.45999L18 6.20166L22.085 4.44416L24.3492 8.25999L28.6875 9.24166L28.2758 13.6592L31.205 17L28.2758 20.3408L28.6875 24.7583ZM16.4167 21.75H19.5833V24.9167H16.4167V21.75ZM16.4167 9.08332H19.5833V18.5833H16.4167V9.08332Z" fill="#AD0000"/>
</svg>
