<svg width="58" height="53" viewBox="0 0 58 53" fill="none" xmlns="http://www.w3.org/2000/svg">
<g filter="url(#filter0_d_3_9)">
<path d="M39.9375 23.4375H33.6875C33.0659 23.4375 32.4698 23.1906 32.0302 22.751C31.5907 22.3115 31.3438 21.7154 31.3438 21.0938C31.3438 20.4722 31.5907 19.876 32.0302 19.4365C32.4698 18.9969 33.0659 18.75 33.6875 18.75H39.9375C40.5591 18.75 41.1552 18.9969 41.5948 19.4365C42.0343 19.876 42.2813 20.4722 42.2813 21.0938C42.2813 21.7154 42.0343 22.3115 41.5948 22.751C41.1552 23.1906 40.5591 23.4375 39.9375 23.4375ZM24.3125 18.75H23.5313V17.9688C23.5313 17.3472 23.2843 16.751 22.8448 16.3115C22.4052 15.8719 21.8091 15.625 21.1875 15.625C20.5659 15.625 19.9698 15.8719 19.5302 16.3115C19.0907 16.751 18.8438 17.3472 18.8438 17.9688V18.75H18.0625C17.4409 18.75 16.8448 18.9969 16.4052 19.4365C15.9657 19.876 15.7188 20.4722 15.7188 21.0938C15.7188 21.7154 15.9657 22.3115 16.4052 22.751C16.8448 23.1906 17.4409 23.4375 18.0625 23.4375H18.8438V24.2188C18.8438 24.8404 19.0907 25.4365 19.5302 25.876C19.9698 26.3156 20.5659 26.5625 21.1875 26.5625C21.8091 26.5625 22.4052 26.3156 22.8448 25.876C23.2843 25.4365 23.5313 24.8404 23.5313 24.2188V23.4375H24.3125C24.9341 23.4375 25.5302 23.1906 25.9698 22.751C26.4093 22.3115 26.6563 21.7154 26.6563 21.0938C26.6563 20.4722 26.4093 19.876 25.9698 19.4365C25.5302 18.9969 24.9341 18.75 24.3125 18.75ZM46.7734 44.4141C46.3218 44.491 45.8644 44.5302 45.4063 44.5313C43.3353 44.5244 41.3501 43.7037 39.8789 42.2461L39.7617 42.1094L32.0664 33.5742H25.9531L18.2383 42.1289L18.1211 42.2461C16.946 43.4249 15.4251 44.1975 13.7801 44.4514C12.1352 44.7053 10.4521 44.4273 8.97626 43.6577C7.5004 42.8882 6.30888 41.6674 5.57537 40.1733C4.84186 38.6792 4.60469 36.9899 4.89844 35.3516V35.3125L8.08203 18.9648V18.9258C8.58126 16.0237 10.0937 13.3927 12.3503 11.5008C14.607 9.60896 17.4615 8.57886 20.4063 8.59375L37.5938 8.53516C40.5187 8.54085 43.3497 9.5689 45.5967 11.4414C47.8437 13.3139 49.3654 15.9131 49.8984 18.7891V18.8281L53.1016 35.332C53.4654 37.3754 53.0033 39.4796 51.8168 41.1825C50.6303 42.8854 48.8163 44.0477 46.7734 44.4141ZM37.5938 28.8477C39.6658 28.8477 41.6529 28.0246 43.118 26.5594C44.5832 25.0943 45.4063 23.1072 45.4063 21.0352C45.4063 18.9632 44.5832 16.976 43.118 15.5109C41.6529 14.0458 39.6658 13.2227 37.5938 13.2227L20.4063 13.2813C18.5843 13.2779 16.8188 13.913 15.4165 15.0762C14.0142 16.2395 13.0638 17.8572 12.7305 19.6484C12.7145 19.6921 12.7078 19.7387 12.7109 19.7852L9.50782 36.1914C9.39635 36.841 9.49312 37.5092 9.78428 38.1005C10.0754 38.6918 10.5461 39.1758 11.129 39.4835C11.7118 39.7912 12.377 39.9067 13.0295 39.8136C13.6819 39.7204 14.2883 39.4233 14.7617 38.9649L23.1602 29.6875C23.3774 29.4409 23.645 29.2435 23.9448 29.1088C24.2446 28.974 24.5697 28.905 24.8984 28.9063L37.5938 28.8477ZM48.4922 36.1914L47.125 29.1211C46.0367 30.4137 44.6956 31.4703 43.1843 32.2259C41.6729 32.9816 40.023 33.4205 38.3359 33.5156L43.2383 38.9649C43.7118 39.4233 44.3181 39.7204 44.9705 39.8136C45.623 39.9067 46.2882 39.7912 46.8711 39.4835C47.4539 39.1758 47.9246 38.6918 48.2157 38.1005C48.5069 37.5092 48.6037 36.841 48.4922 36.1914Z" fill="black"/>
</g>
<defs>
<filter id="filter0_d_3_9" x="0" y="0" width="58" height="58" filterUnits="userSpaceOnUse" color-interpolation-filters="sRGB">
<feFlood flood-opacity="0" result="BackgroundImageFix"/>
<feColorMatrix in="SourceAlpha" type="matrix" values="0 0 0 0 0 0 0 0 0 0 0 0 0 0 0 0 0 0 127 0" result="hardAlpha"/>
<feOffset dy="4"/>
<feGaussianBlur stdDeviation="2"/>
<feComposite in2="hardAlpha" operator="out"/>
<feColorMatrix type="matrix" values="0 0 0 0 0 0 0 0 0 0 0 0 0 0 0 0 0 0 0.25 0"/>
<feBlend mode="normal" in2="BackgroundImageFix" result="effect1_dropShadow_3_9"/>
<feBlend mode="normal" in="SourceGraphic" in2="effect1_dropShadow_3_9" result="shape"/>
</filter>
</defs>
</svg>
