<svg width="28" height="32" viewBox="0 0 28 32" fill="none" xmlns="http://www.w3.org/2000/svg">
<path d="M20.0114 20.091H18.7467L18.2985 19.6162C19.9216 17.5487 20.8137 14.909 20.8119 12.1791C20.8119 9.91879 20.2016 7.70926 19.0582 5.82989C17.9148 3.95052 16.2896 2.48573 14.3881 1.62075C12.4867 0.755776 10.3944 0.529458 8.37585 0.97042C6.35729 1.41138 4.50313 2.49982 3.04783 4.09809C1.59254 5.69636 0.601468 7.73268 0.199952 9.94955C-0.201564 12.1664 0.00450873 14.4643 0.79211 16.5525C1.57971 18.6407 2.91347 20.4256 4.62472 21.6813C6.33597 22.9371 8.34785 23.6074 10.4059 23.6074C12.9834 23.6074 15.3528 22.57 17.1778 20.847L17.6101 21.3393V22.7283L25.6146 31.5016L28 28.8819L20.0114 20.091ZM10.4059 20.091C6.41967 20.091 3.20183 16.557 3.20183 12.1791C3.20183 7.80119 6.41967 4.26722 10.4059 4.26722C14.3922 4.26722 17.6101 7.80119 17.6101 12.1791C17.6101 16.557 14.3922 20.091 10.4059 20.091Z" fill="black"/>
</svg>
